<svg xmlns="http://www.w3.org/2000/svg" xmlns:xlink="http://www.w3.org/1999/xlink" version="1.1" width="14" height="16" viewBox="0 0 14 16"><path d="M12.8333,1.14286Q12.8333,3.47321,11.8626,5.26339Q10.8919,7.05357,9.43359,8Q10.8919,8.94643,11.8626,10.7366Q12.8333,12.5268,12.8333,14.8571L13.7083,14.8571Q13.8359,14.8571,13.918,14.9375Q14,15.0179,14,15.1429L14,15.7143Q14,15.8393,13.918,15.9196Q13.8359,16,13.7083,16L0.291667,16Q0.164062,16,0.0820313,15.9196Q1.21693e-7,15.8393,0,15.7143L0,15.1429Q0,15.0179,0.0820313,14.9375Q0.164063,14.8571,0.291667,14.8571L1.16667,14.8571Q1.16667,12.5268,2.13737,10.7366Q3.10807,8.94643,4.56641,8Q3.10807,7.05357,2.13737,5.26339Q1.16667,3.47321,1.16667,1.14286L0.291667,1.14286Q0.164062,1.14286,0.0820313,1.0625Q1.21693e-7,0.982143,0,0.857143L0,0.285714Q0,0.160714,0.0820313,0.0803571Q0.164063,7.45058e-9,0.291667,0L13.7083,0Q13.8359,0,13.918,0.0803571Q14,0.160714,14,0.285714L14,0.857143Q14,0.982143,13.918,1.0625Q13.8359,1.14286,13.7083,1.14286L12.8333,1.14286ZM11.6667,1.14286L2.33333,1.14286Q2.33333,2.98214,3.10807,4.57143L10.8919,4.57143Q11.6667,2.98214,11.6667,1.14286ZM11.1471,12Q10.6549,10.7411,9.82096,9.84375Q8.98698,8.94643,8.04818,8.57143L5.95182,8.57143Q5.01302,8.94643,4.17904,9.84375Q3.34505,10.7411,2.85286,12L11.1471,12Z" fill-opacity="1"/></svg>