<svg width="24" height="21" viewBox="0 0 24 21" fill="#52A4E6" xmlns="http://www.w3.org/2000/svg">
<path d="M0 16.1096C0 15.8021 0.0948487 15.5437 0.284546 15.3344C0.480785 15.1186 0.76206 15.0106 1.12837 15.0106C1.49469 15.0106 1.77269 15.1186 1.96239 15.3344C2.15863 15.5437 2.25675 15.8021 2.25675 16.1096C2.25675 16.4105 2.15863 16.6656 1.96239 16.8749C1.77269 17.0842 1.49469 17.1889 1.12837 17.1889C0.76206 17.1889 0.480785 17.0842 0.284546 16.8749C0.0948487 16.6656 0 16.4105 0 16.1096Z" fill="#3E62BF"/>
<path d="M11.4505 14.2551C11.4505 13.9935 11.3917 13.7514 11.2739 13.529C11.1627 13.3001 10.9305 13.094 10.5773 12.9109C10.2306 12.7212 9.70728 12.5576 9.00736 12.4203C8.41864 12.296 7.88553 12.1488 7.40801 11.9787C6.93704 11.8087 6.53475 11.6026 6.20114 11.3606C5.87408 11.1186 5.62224 10.834 5.44563 10.5069C5.26901 10.1799 5.1807 9.79722 5.1807 9.35895C5.1807 8.94031 5.27228 8.54456 5.45544 8.17171C5.64513 7.79886 5.91006 7.46852 6.2502 7.1807C6.59689 6.89289 7.01226 6.66721 7.49632 6.50368C7.98038 6.34015 8.52003 6.25838 9.11529 6.25838C9.96566 6.25838 10.6917 6.40883 11.2935 6.70973C11.8953 7.01063 12.3565 7.41292 12.677 7.9166C12.9975 8.41374 13.1578 8.96648 13.1578 9.57482H11.3426C11.3426 9.28046 11.2543 8.99591 11.0777 8.72118C10.9076 8.4399 10.6558 8.20769 10.3222 8.02453C9.99509 7.84137 9.5928 7.7498 9.11529 7.7498C8.61161 7.7498 8.20278 7.82829 7.8888 7.98528C7.58136 8.13573 7.35568 8.3287 7.21177 8.56419C7.07441 8.79967 7.00572 9.04824 7.00572 9.30989C7.00572 9.50613 7.03843 9.68275 7.10384 9.83974C7.1758 9.99019 7.30008 10.1308 7.4767 10.2617C7.65331 10.3859 7.90188 10.5037 8.2224 10.6149C8.54293 10.7261 8.95176 10.8373 9.4489 10.9485C10.3189 11.1447 11.0352 11.3802 11.5977 11.6549C12.1603 11.9297 12.5789 12.2666 12.8536 12.6656C13.1284 13.0646 13.2657 13.5487 13.2657 14.1177C13.2657 14.5822 13.1676 15.0074 12.9714 15.3933C12.7817 15.7792 12.5037 16.1128 12.1374 16.3941C11.7776 16.6688 11.3459 16.8847 10.8422 17.0417C10.3451 17.1922 9.78577 17.2674 9.16435 17.2674C8.22894 17.2674 7.43745 17.1006 6.78986 16.767C6.14227 16.4334 5.65168 16.0016 5.31807 15.4718C4.98446 14.9419 4.81766 14.3827 4.81766 13.7939H6.64268C6.66885 14.2911 6.81276 14.6868 7.07441 14.9812C7.33606 15.269 7.65658 15.4751 8.03598 15.5993C8.41537 15.7171 8.7915 15.776 9.16435 15.776C9.66149 15.776 10.0769 15.7105 10.4105 15.5797C10.7506 15.4489 11.009 15.269 11.1856 15.0401C11.3622 14.8111 11.4505 14.5495 11.4505 14.2551Z" fill="#3E62BF"/>
<path d="M17.4652 2V17.0711H15.65V2H17.4652ZM17.0335 11.3606L16.278 11.3312C16.2845 10.6051 16.3925 9.93459 16.6018 9.31971C16.8111 8.69828 17.1055 8.15863 17.4849 7.70074C17.8643 7.24285 18.3156 6.88962 18.8389 6.64105C19.3688 6.38594 19.9542 6.25838 20.5953 6.25838C21.1186 6.25838 21.5895 6.33034 22.0082 6.47424C22.4268 6.61161 22.7833 6.83401 23.0777 7.14146C23.3786 7.4489 23.6075 7.84791 23.7645 8.33851C23.9215 8.82257 24 9.41455 24 10.1145V17.0711H22.175V10.0948C22.175 9.53884 22.0932 9.09403 21.9297 8.76042C21.7661 8.42028 21.5274 8.17498 21.2134 8.02453C20.8994 7.86754 20.5135 7.78904 20.0556 7.78904C19.6043 7.78904 19.1921 7.88389 18.8193 8.07359C18.453 8.26329 18.1357 8.52494 17.8675 8.85854C17.6059 9.19215 17.3998 9.57482 17.2494 10.0065C17.1055 10.4317 17.0335 10.8831 17.0335 11.3606Z" fill="#3E62BF"/>
</svg>
