<svg width="64" height="64" viewBox="0 0 64 64" fill="none" xmlns="http://www.w3.org/2000/svg">
<path fill-rule="evenodd" clip-rule="evenodd" d="M37 49.9336C37 48.2006 37 46.4675 37 44.7345C37.1358 44.6289 37.2726 44.5246 37.407 44.4174C38.4388 43.5946 39.4701 42.7712 40.5016 41.9482C42.6288 40.2509 44.7458 38.5404 46.8882 36.8633C47.7068 36.2225 48.4436 35.4627 49.3913 35C49.4276 35 49.4637 35 49.5 35C49.7139 35.13 49.9432 35.2397 50.1394 35.3931C53.6833 38.1653 57.2263 40.9386 60.7602 43.7239C61.2268 44.0916 61.8084 44.3619 62 45.0111C62 46.6519 62 48.2928 62 49.9336C61.8568 50.1597 61.7589 50.4433 61.5633 50.6024C60.3542 51.5862 59.1232 52.542 57.8993 53.5071C56.0887 54.9349 54.2894 56.378 52.4627 57.7843C51.4857 58.5364 50.5946 59.4102 49.5 60C49.4637 60 49.4276 60 49.3913 60C49.0398 59.7644 48.6707 59.552 48.3397 59.2896C45.041 56.6744 41.7426 54.0587 38.4604 51.4222C37.9218 50.9895 37.2229 50.6961 37 49.9336ZM54.0113 49.9135C53.9336 49.8283 53.8961 49.7767 53.849 49.7372C53.3739 49.3386 52.8938 48.9461 52.4229 48.5425C52.2621 48.4047 52.142 48.4074 51.9789 48.5485C51.3514 49.0916 50.7119 49.6205 50.0779 50.1559C49.5865 50.5708 49.3218 50.5787 48.8262 50.1842C47.0006 48.7312 45.1766 47.2762 43.3497 45.825C42.7374 45.3387 42.726 44.793 43.3311 44.3067C45.1641 42.8335 46.9978 41.3612 48.8319 39.8892C49.2979 39.5153 49.566 39.5096 50.021 39.8758C51.1074 40.7503 52.1902 41.6295 53.2753 42.5055C55.5308 44.3262 57.7868 46.1463 60.0437 47.9652C60.1158 48.0233 60.2001 48.0655 60.3052 48.1319C60.3216 48.0227 60.3386 47.9612 60.3388 47.8997C60.3406 47.1532 60.3492 46.4064 60.3307 45.6603C60.3277 45.5399 60.2278 45.3877 60.1279 45.309C56.684 42.5972 53.2348 39.8923 49.7859 37.187C49.4319 36.9093 49.4326 36.914 49.0615 37.2101C46.062 39.603 43.0616 41.9948 40.0617 44.3873C39.7784 44.6133 39.4973 44.8424 39.1902 45.0903C39.2981 45.1941 39.3766 45.2799 39.4651 45.353C39.9919 45.789 40.5215 46.2216 41.0493 46.6562C43.7595 48.8873 46.4718 51.1155 49.1745 53.3558C49.3908 53.535 49.5215 53.5208 49.7253 53.3551C50.7296 52.5385 51.7455 51.7367 52.7562 50.9281C53.1676 50.599 53.5757 50.2658 54.0113 49.9135ZM38.6788 46.8711C38.6701 47.0269 38.6603 47.1238 38.6601 47.2207C38.6588 47.8751 38.6671 48.5296 38.6552 49.1838C38.651 49.4085 38.721 49.5574 38.8975 49.6965C40.2716 50.7798 41.6384 51.8726 43.0077 52.9622C45.0901 54.6195 47.1733 56.2757 49.2541 57.9351C49.3877 58.0415 49.4907 58.0571 49.6357 57.9426C52.7468 55.4854 55.8615 53.0329 58.975 50.5789C59.2446 50.3663 59.511 50.1495 59.804 49.9145C59.6966 49.813 59.6238 49.734 59.5413 49.6673C56.2517 47.0087 52.9605 44.352 49.6729 41.6908C49.5068 41.5564 49.3919 41.5273 49.207 41.6776C47.8985 42.7413 46.5803 43.7926 45.2628 44.8449C45.1863 44.9059 45.0894 44.9405 45.002 44.9874C45.4786 45.4286 45.8978 45.7474 46.2979 46.0893C46.4705 46.2368 46.5904 46.2336 46.7634 46.0937C47.4651 45.5264 48.174 44.9683 48.8864 44.4149C49.286 44.1045 49.6294 44.1207 50.0199 44.4431C51.243 45.4532 52.4668 46.4626 53.6892 47.4736C54.3778 48.043 55.0648 48.6144 55.7516 49.186C56.2857 49.6304 56.2853 50.184 55.7506 50.6272C55.6312 50.7261 55.5059 50.8173 55.3849 50.9141C53.5904 52.3478 51.7965 53.7822 50.0016 55.2154C49.6117 55.5267 49.2632 55.5235 48.8676 55.208C48.6253 55.0147 48.3851 54.8189 48.1459 54.6217C45.0778 52.0939 42.0103 49.5654 38.9415 47.0384C38.8761 46.9846 38.7982 46.9465 38.6788 46.8711ZM50.9111 47.3176C50.4161 46.9034 49.9752 46.5252 49.5197 46.166C49.4687 46.1257 49.3144 46.1636 49.2441 46.2157C48.9009 46.4701 48.569 46.7402 48.2353 47.0077C48.1191 47.1008 48.0092 47.2022 47.8634 47.3283C48.3773 47.736 48.8518 48.1155 49.332 48.4874C49.3696 48.5165 49.4675 48.5174 49.5034 48.4881C49.96 48.1161 50.4104 47.7362 50.9111 47.3176Z" fill="var(--hf-theme-color)"/>
<path d="M51.4717 7H12.5283C10.0274 7 8 9.06638 8 11.6154V51.3846C8 53.9336 10.0274 56 12.5283 56H40.9318L35.2535 51.6923H12.5283C12.4482 51.6923 12.3715 51.6599 12.3148 51.6022C12.2582 51.5445 12.2264 51.4662 12.2264 51.3846V11.6154C12.2264 11.5338 12.2582 11.4555 12.3148 11.3978C12.3715 11.3401 12.4482 11.3077 12.5283 11.3077H51.4717C51.5518 11.3077 51.6285 11.3401 51.6852 11.3978C51.7418 11.4555 51.7736 11.5338 51.7736 11.6154V34.8676L56 38.3393V11.6154C56 9.06638 53.9726 7 51.4717 7Z" fill="#848484"/>
<path d="M39.0251 41.3077H16.4528V45.6154H35V44.5L39.0251 41.3077Z" fill="#848484"/>
<path d="M32.7547 30.4231H16.4528V34.7308H32.7547V30.4231Z" fill="#848484"/>
<path d="M32.7547 19.5385H16.4528V23.8462H32.7547V19.5385Z" fill="#848484"/>
<path d="M48.9433 17.4567L45.9758 14.3895L40.5629 19.8299L37.6514 17.1202L34.8014 20.3012L40.6746 25.7675L48.9433 17.4567Z" fill="#848484"/>
<path d="M48.9433 29.5336L45.9758 26.4664L40.5629 31.9068L37.6514 29.1971L34.8014 32.3781L40.6746 37.8444L48.9433 29.5336Z" fill="#848484"/>
</svg>
